<svg width="280" height="58" viewBox="0 0 280 58" fill="none" xmlns="http://www.w3.org/2000/svg">
<rect width="280" height="58" rx="10" fill="#393535"/>
<path d="M149.66 37.3C148.92 37.3 148.23 37.1467 147.59 36.84C146.957 36.5333 146.413 36.1133 145.96 35.58C145.513 35.04 145.193 34.42 145 33.72L146.71 33.26C146.83 33.7333 147.043 34.1433 147.35 34.49C147.657 34.83 148.013 35.0967 148.42 35.29C148.833 35.4767 149.263 35.57 149.71 35.57C150.297 35.57 150.823 35.43 151.29 35.15C151.763 34.8633 152.137 34.4867 152.41 34.02C152.683 33.5467 152.82 33.03 152.82 32.47C152.82 31.89 152.677 31.3667 152.39 30.9C152.11 30.4267 151.733 30.0533 151.26 29.78C150.787 29.5067 150.27 29.37 149.71 29.37C149.077 29.37 148.533 29.5033 148.08 29.77C147.633 30.03 147.28 30.35 147.02 30.73L145.44 30.13L145.88 22.6H153.61V24.29H146.74L147.53 23.55L147.16 29.58L146.77 29.07C147.17 28.6433 147.647 28.3133 148.2 28.08C148.76 27.8467 149.33 27.73 149.91 27.73C150.803 27.73 151.603 27.94 152.31 28.36C153.017 28.7733 153.577 29.34 153.99 30.06C154.403 30.7733 154.61 31.5767 154.61 32.47C154.61 33.3567 154.383 34.1667 153.93 34.9C153.477 35.6267 152.873 36.21 152.12 36.65C151.373 37.0833 150.553 37.3 149.66 37.3ZM161.712 22.31C162.632 22.31 163.462 22.53 164.202 22.97C164.942 23.41 165.528 24.01 165.962 24.77C166.402 25.53 166.622 26.3933 166.622 27.36V32.15C166.622 33.1567 166.405 34.0467 165.972 34.82C165.538 35.5933 164.938 36.2 164.172 36.64C163.412 37.08 162.538 37.3 161.552 37.3C160.765 37.3 160.028 37.1367 159.342 36.81C158.662 36.4833 158.085 36.02 157.612 35.42L158.942 34.24C159.235 34.6533 159.612 34.9867 160.072 35.24C160.532 35.4867 161.025 35.61 161.552 35.61C162.192 35.61 162.755 35.4567 163.242 35.15C163.735 34.8433 164.118 34.4433 164.392 33.95C164.672 33.4567 164.812 32.9233 164.812 32.35V29.46L165.202 29.9C164.788 30.5 164.258 30.98 163.612 31.34C162.965 31.7 162.262 31.88 161.502 31.88C160.608 31.88 159.808 31.67 159.102 31.25C158.395 30.83 157.835 30.2633 157.422 29.55C157.008 28.83 156.802 28.0233 156.802 27.13C156.802 26.2367 157.025 25.4267 157.472 24.7C157.918 23.9667 158.512 23.3867 159.252 22.96C159.998 22.5267 160.818 22.31 161.712 22.31ZM161.712 24.03C161.138 24.03 160.615 24.17 160.142 24.45C159.675 24.7233 159.302 25.0967 159.022 25.57C158.742 26.0367 158.602 26.5567 158.602 27.13C158.602 27.7033 158.738 28.2267 159.012 28.7C159.292 29.1667 159.665 29.54 160.132 29.82C160.605 30.1 161.128 30.24 161.702 30.24C162.275 30.24 162.798 30.1 163.272 29.82C163.745 29.54 164.118 29.1667 164.392 28.7C164.672 28.2267 164.812 27.7033 164.812 27.13C164.812 26.5633 164.672 26.0467 164.392 25.58C164.118 25.1067 163.745 24.73 163.272 24.45C162.805 24.17 162.285 24.03 161.712 24.03ZM170.223 35.5V33.54H172.183V35.5H170.223ZM170.233 29.66V27.7H172.193V29.66H170.233ZM179.953 37.3C179.213 37.3 178.523 37.1467 177.883 36.84C177.25 36.5333 176.706 36.1133 176.253 35.58C175.806 35.04 175.486 34.42 175.293 33.72L177.003 33.26C177.123 33.7333 177.336 34.1433 177.643 34.49C177.95 34.83 178.306 35.0967 178.713 35.29C179.126 35.4767 179.556 35.57 180.003 35.57C180.59 35.57 181.116 35.43 181.583 35.15C182.056 34.8633 182.43 34.4867 182.703 34.02C182.976 33.5467 183.113 33.03 183.113 32.47C183.113 31.89 182.97 31.3667 182.683 30.9C182.403 30.4267 182.026 30.0533 181.553 29.78C181.08 29.5067 180.563 29.37 180.003 29.37C179.37 29.37 178.826 29.5033 178.373 29.77C177.926 30.03 177.573 30.35 177.313 30.73L175.733 30.13L176.173 22.6H183.903V24.29H177.033L177.823 23.55L177.453 29.58L177.063 29.07C177.463 28.6433 177.94 28.3133 178.493 28.08C179.053 27.8467 179.623 27.73 180.203 27.73C181.096 27.73 181.896 27.94 182.603 28.36C183.31 28.7733 183.87 29.34 184.283 30.06C184.696 30.7733 184.903 31.5767 184.903 32.47C184.903 33.3567 184.676 34.1667 184.223 34.9C183.77 35.6267 183.166 36.21 182.413 36.65C181.666 37.0833 180.846 37.3 179.953 37.3ZM192.005 22.31C192.925 22.31 193.755 22.53 194.495 22.97C195.235 23.41 195.821 24.01 196.255 24.77C196.695 25.53 196.915 26.3933 196.915 27.36V32.15C196.915 33.1567 196.698 34.0467 196.265 34.82C195.831 35.5933 195.231 36.2 194.465 36.64C193.705 37.08 192.831 37.3 191.845 37.3C191.058 37.3 190.321 37.1367 189.635 36.81C188.955 36.4833 188.378 36.02 187.905 35.42L189.235 34.24C189.528 34.6533 189.905 34.9867 190.365 35.24C190.825 35.4867 191.318 35.61 191.845 35.61C192.485 35.61 193.048 35.4567 193.535 35.15C194.028 34.8433 194.411 34.4433 194.685 33.95C194.965 33.4567 195.105 32.9233 195.105 32.35V29.46L195.495 29.9C195.081 30.5 194.551 30.98 193.905 31.34C193.258 31.7 192.555 31.88 191.795 31.88C190.901 31.88 190.101 31.67 189.395 31.25C188.688 30.83 188.128 30.2633 187.715 29.55C187.301 28.83 187.095 28.0233 187.095 27.13C187.095 26.2367 187.318 25.4267 187.765 24.7C188.211 23.9667 188.805 23.3867 189.545 22.96C190.291 22.5267 191.111 22.31 192.005 22.31ZM192.005 24.03C191.431 24.03 190.908 24.17 190.435 24.45C189.968 24.7233 189.595 25.0967 189.315 25.57C189.035 26.0367 188.895 26.5567 188.895 27.13C188.895 27.7033 189.031 28.2267 189.305 28.7C189.585 29.1667 189.958 29.54 190.425 29.82C190.898 30.1 191.421 30.24 191.995 30.24C192.568 30.24 193.091 30.1 193.565 29.82C194.038 29.54 194.411 29.1667 194.685 28.7C194.965 28.2267 195.105 27.7033 195.105 27.13C195.105 26.5633 194.965 26.0467 194.685 25.58C194.411 25.1067 194.038 24.73 193.565 24.45C193.098 24.17 192.578 24.03 192.005 24.03Z" fill="white"/>
<path d="M251 42.4375C244.45 42.4375 239.125 37.1125 239.125 30.5625C239.125 24.0125 244.45 18.6875 251 18.6875C257.55 18.6875 262.875 24.0125 262.875 30.5625C262.875 37.1125 257.55 42.4375 251 42.4375ZM251 20.5625C245.488 20.5625 241 25.05 241 30.5625C241 36.075 245.488 40.5625 251 40.5625C256.513 40.5625 261 36.075 261 30.5625C261 25.05 256.513 20.5625 251 20.5625Z" fill="#34A853"/>
<path d="M251 31.1875C250.488 31.1875 250.062 30.7625 250.062 30.25V24C250.062 23.4875 250.488 23.0625 251 23.0625C251.513 23.0625 251.938 23.4875 251.938 24V30.25C251.938 30.7625 251.513 31.1875 251 31.1875Z" fill="#34A853"/>
<path d="M254.75 17.4375H247.25C246.738 17.4375 246.312 17.0125 246.312 16.5C246.312 15.9875 246.738 15.5625 247.25 15.5625H254.75C255.262 15.5625 255.688 15.9875 255.688 16.5C255.688 17.0125 255.262 17.4375 254.75 17.4375Z" fill="#34A853"/>
<path d="M21.208 21.688V20.12H22.776V21.688H21.208ZM21.28 35V23.48H22.704V35H21.28ZM35.4324 35L35.4404 29.472C35.4404 28.8267 35.267 28.3227 34.9204 27.96C34.579 27.592 34.1337 27.408 33.5844 27.408C33.2644 27.408 32.9604 27.4827 32.6724 27.632C32.3844 27.776 32.1497 28.0053 31.9684 28.32C31.787 28.6293 31.6964 29.0267 31.6964 29.512L30.9444 29.208C30.9337 28.5947 31.059 28.0587 31.3204 27.6C31.587 27.136 31.9497 26.776 32.4084 26.52C32.867 26.264 33.3844 26.136 33.9604 26.136C34.8617 26.136 35.571 26.4107 36.0884 26.96C36.6057 27.504 36.8644 28.2373 36.8644 29.16L36.8564 35H35.4324ZM25.0964 35V26.36H26.3684V28.672H26.5284V35H25.0964ZM30.2724 35L30.2804 29.528C30.2804 28.8667 30.1097 28.3493 29.7684 27.976C29.427 27.5973 28.9737 27.408 28.4084 27.408C27.8484 27.408 27.395 27.6 27.0484 27.984C26.7017 28.368 26.5284 28.8773 26.5284 29.512L25.7764 29.064C25.7764 28.504 25.9097 28.0027 26.1764 27.56C26.443 27.1173 26.8057 26.7707 27.2644 26.52C27.723 26.264 28.243 26.136 28.8244 26.136C29.4057 26.136 29.9124 26.2587 30.3444 26.504C30.7764 26.7493 31.1097 27.1013 31.3444 27.56C31.579 28.0133 31.6964 28.5547 31.6964 29.184L31.6884 35H30.2724ZM43.7721 35C43.2601 35.1013 42.7535 35.1413 42.2521 35.12C41.7561 35.104 41.3135 35.0053 40.9241 34.824C40.5348 34.6373 40.2388 34.3493 40.0361 33.96C39.8655 33.6187 39.7721 33.2747 39.7561 32.928C39.7455 32.576 39.7401 32.1787 39.7401 31.736V23.96H41.1641V31.672C41.1641 32.024 41.1668 32.3253 41.1721 32.576C41.1828 32.8267 41.2388 33.0427 41.3401 33.224C41.5321 33.5653 41.8361 33.7653 42.2521 33.824C42.6735 33.8827 43.1801 33.8667 43.7721 33.776V35ZM37.9881 27.536V26.36H43.7721V27.536H37.9881ZM47.9823 35.24C47.3369 35.24 46.7956 35.1227 46.3583 34.888C45.9263 34.648 45.5983 34.3333 45.3743 33.944C45.1556 33.5547 45.0463 33.128 45.0463 32.664C45.0463 32.2107 45.1316 31.8187 45.3023 31.488C45.4783 31.152 45.7236 30.8747 46.0383 30.656C46.3529 30.432 46.7289 30.256 47.1663 30.128C47.5769 30.016 48.0356 29.92 48.5423 29.84C49.0543 29.7547 49.5716 29.6773 50.0943 29.608C50.6169 29.5387 51.1049 29.472 51.5583 29.408L51.0463 29.704C51.0623 28.936 50.9076 28.368 50.5823 28C50.2623 27.632 49.7076 27.448 48.9183 27.448C48.3956 27.448 47.9369 27.568 47.5423 27.808C47.1529 28.0427 46.8783 28.4267 46.7183 28.96L45.3663 28.552C45.5743 27.7947 45.9769 27.2 46.5743 26.768C47.1716 26.336 47.9583 26.12 48.9343 26.12C49.7183 26.12 50.3903 26.2613 50.9503 26.544C51.5156 26.8213 51.9209 27.2427 52.1663 27.808C52.2889 28.0747 52.3663 28.3653 52.3983 28.68C52.4303 28.9893 52.4462 29.3147 52.4462 29.656V35H51.1823V32.928L51.4783 33.12C51.1529 33.8187 50.6969 34.3467 50.1103 34.704C49.5289 35.0613 48.8196 35.24 47.9823 35.24ZM48.1983 34.048C48.7103 34.048 49.1529 33.9573 49.5263 33.776C49.9049 33.5893 50.2089 33.3467 50.4383 33.048C50.6676 32.744 50.8169 32.4133 50.8863 32.056C50.9663 31.7893 51.0089 31.4933 51.0143 31.168C51.0249 30.8373 51.0303 30.584 51.0303 30.408L51.5263 30.624C51.0623 30.688 50.6063 30.7493 50.1583 30.808C49.7103 30.8667 49.2863 30.9307 48.8863 31C48.4863 31.064 48.1263 31.1413 47.8063 31.232C47.5716 31.3067 47.3503 31.4027 47.1423 31.52C46.9396 31.6373 46.7743 31.7893 46.6463 31.976C46.5236 32.1573 46.4622 32.384 46.4622 32.656C46.4622 32.8907 46.5209 33.1147 46.6383 33.328C46.7609 33.5413 46.9476 33.7147 47.1983 33.848C47.4543 33.9813 47.7876 34.048 48.1983 34.048ZM60.6783 35V30.672C60.6783 30.2613 60.6409 29.8667 60.5663 29.488C60.4969 29.1093 60.3716 28.7707 60.1903 28.472C60.0143 28.168 59.7743 27.928 59.4703 27.752C59.1716 27.576 58.7929 27.488 58.3343 27.488C57.9769 27.488 57.6516 27.5493 57.3583 27.672C57.0703 27.7893 56.8223 27.9707 56.6143 28.216C56.4063 28.4613 56.2436 28.7707 56.1263 29.144C56.0143 29.512 55.9583 29.9467 55.9583 30.448L55.0223 30.16C55.0223 29.3227 55.1716 28.6053 55.4703 28.008C55.7743 27.4053 56.1983 26.944 56.7423 26.624C57.2916 26.2987 57.9369 26.136 58.6783 26.136C59.2383 26.136 59.7156 26.224 60.1103 26.4C60.5049 26.576 60.8329 26.8107 61.0943 27.104C61.3556 27.392 61.5609 27.7173 61.7103 28.08C61.8596 28.4373 61.9636 28.8027 62.0223 29.176C62.0863 29.544 62.1183 29.8933 62.1183 30.224V35H60.6783ZM54.5183 35V23.48H55.7983V29.84H55.9583V35H54.5183ZM66.6541 35.24C66.0088 35.24 65.4675 35.1227 65.0301 34.888C64.5981 34.648 64.2701 34.3333 64.0461 33.944C63.8275 33.5547 63.7181 33.128 63.7181 32.664C63.7181 32.2107 63.8035 31.8187 63.9741 31.488C64.1501 31.152 64.3955 30.8747 64.7101 30.656C65.0248 30.432 65.4008 30.256 65.8381 30.128C66.2488 30.016 66.7075 29.92 67.2141 29.84C67.7261 29.7547 68.2435 29.6773 68.7661 29.608C69.2888 29.5387 69.7768 29.472 70.2301 29.408L69.7181 29.704C69.7341 28.936 69.5795 28.368 69.2541 28C68.9341 27.632 68.3795 27.448 67.5901 27.448C67.0675 27.448 66.6088 27.568 66.2141 27.808C65.8248 28.0427 65.5501 28.4267 65.3901 28.96L64.0381 28.552C64.2461 27.7947 64.6488 27.2 65.2461 26.768C65.8435 26.336 66.6301 26.12 67.6061 26.12C68.3901 26.12 69.0621 26.2613 69.6221 26.544C70.1875 26.8213 70.5928 27.2427 70.8381 27.808C70.9608 28.0747 71.0381 28.3653 71.0701 28.68C71.1021 28.9893 71.1181 29.3147 71.1181 29.656V35H69.8541V32.928L70.1501 33.12C69.8248 33.8187 69.3688 34.3467 68.7821 34.704C68.2008 35.0613 67.4915 35.24 66.6541 35.24ZM66.8701 34.048C67.3821 34.048 67.8248 33.9573 68.1981 33.776C68.5768 33.5893 68.8808 33.3467 69.1101 33.048C69.3395 32.744 69.4888 32.4133 69.5581 32.056C69.6381 31.7893 69.6808 31.4933 69.6861 31.168C69.6968 30.8373 69.7021 30.584 69.7021 30.408L70.1981 30.624C69.7341 30.688 69.2781 30.7493 68.8301 30.808C68.3821 30.8667 67.9581 30.9307 67.5581 31C67.1581 31.064 66.7981 31.1413 66.4781 31.232C66.2435 31.3067 66.0221 31.4027 65.8141 31.52C65.6115 31.6373 65.4461 31.7893 65.3181 31.976C65.1955 32.1573 65.1341 32.384 65.1341 32.656C65.1341 32.8907 65.1928 33.1147 65.3101 33.328C65.4328 33.5413 65.6195 33.7147 65.8701 33.848C66.1261 33.9813 66.4595 34.048 66.8701 34.048ZM79.3501 35V30.672C79.3501 30.2613 79.3128 29.8667 79.2381 29.488C79.1688 29.1093 79.0435 28.7707 78.8621 28.472C78.6861 28.168 78.4461 27.928 78.1421 27.752C77.8435 27.576 77.4648 27.488 77.0061 27.488C76.6488 27.488 76.3235 27.5493 76.0301 27.672C75.7421 27.7893 75.4941 27.9707 75.2861 28.216C75.0781 28.4613 74.9155 28.7707 74.7981 29.144C74.6861 29.512 74.6301 29.9467 74.6301 30.448L73.6941 30.16C73.6941 29.3227 73.8435 28.6053 74.1421 28.008C74.4461 27.4053 74.8701 26.944 75.4141 26.624C75.9635 26.2987 76.6088 26.136 77.3501 26.136C77.9101 26.136 78.3875 26.224 78.7821 26.4C79.1768 26.576 79.5048 26.8107 79.7661 27.104C80.0275 27.392 80.2328 27.7173 80.3821 28.08C80.5315 28.4373 80.6355 28.8027 80.6941 29.176C80.7581 29.544 80.7901 29.8933 80.7901 30.224V35H79.3501ZM73.1901 35V26.36H74.4701V28.672H74.6301V35H73.1901ZM88.4091 35L85.2731 26.36H86.7131L89.1371 33.184L91.5531 26.36H93.0011L89.8651 35H88.4091ZM96.4198 35.24C95.7744 35.24 95.2331 35.1227 94.7958 34.888C94.3638 34.648 94.0358 34.3333 93.8118 33.944C93.5931 33.5547 93.4838 33.128 93.4838 32.664C93.4838 32.2107 93.5691 31.8187 93.7398 31.488C93.9158 31.152 94.1611 30.8747 94.4758 30.656C94.7904 30.432 95.1664 30.256 95.6038 30.128C96.0144 30.016 96.4731 29.92 96.9798 29.84C97.4918 29.7547 98.0091 29.6773 98.5318 29.608C99.0544 29.5387 99.5424 29.472 99.9958 29.408L99.4838 29.704C99.4998 28.936 99.3451 28.368 99.0198 28C98.6998 27.632 98.1451 27.448 97.3558 27.448C96.8331 27.448 96.3744 27.568 95.9798 27.808C95.5904 28.0427 95.3158 28.4267 95.1558 28.96L93.8038 28.552C94.0118 27.7947 94.4144 27.2 95.0118 26.768C95.6091 26.336 96.3958 26.12 97.3718 26.12C98.1558 26.12 98.8278 26.2613 99.3878 26.544C99.9531 26.8213 100.358 27.2427 100.604 27.808C100.726 28.0747 100.804 28.3653 100.836 28.68C100.868 28.9893 100.884 29.3147 100.884 29.656V35H99.6198V32.928L99.9158 33.12C99.5904 33.8187 99.1344 34.3467 98.5478 34.704C97.9664 35.0613 97.2571 35.24 96.4198 35.24ZM96.6358 34.048C97.1478 34.048 97.5904 33.9573 97.9638 33.776C98.3424 33.5893 98.6464 33.3467 98.8758 33.048C99.1051 32.744 99.2544 32.4133 99.3238 32.056C99.4038 31.7893 99.4464 31.4933 99.4518 31.168C99.4624 30.8373 99.4678 30.584 99.4678 30.408L99.9638 30.624C99.4998 30.688 99.0438 30.7493 98.5958 30.808C98.1478 30.8667 97.7238 30.9307 97.3238 31C96.9238 31.064 96.5638 31.1413 96.2438 31.232C96.0091 31.3067 95.7878 31.4027 95.5798 31.52C95.3771 31.6373 95.2118 31.7893 95.0838 31.976C94.9611 32.1573 94.8997 32.384 94.8997 32.656C94.8997 32.8907 94.9584 33.1147 95.0758 33.328C95.1984 33.5413 95.3851 33.7147 95.6358 33.848C95.8918 33.9813 96.2251 34.048 96.6358 34.048ZM102.004 35L105.308 30.632L102.076 26.36H103.772L106.14 29.528L108.484 26.36H110.18L106.948 30.632L110.26 35H108.556L106.14 31.736L103.708 35H102.004ZM116.366 35C115.854 35.1013 115.347 35.1413 114.846 35.12C114.35 35.104 113.907 35.0053 113.518 34.824C113.129 34.6373 112.833 34.3493 112.63 33.96C112.459 33.6187 112.366 33.2747 112.35 32.928C112.339 32.576 112.334 32.1787 112.334 31.736V23.96H113.758V31.672C113.758 32.024 113.761 32.3253 113.766 32.576C113.777 32.8267 113.833 33.0427 113.934 33.224C114.126 33.5653 114.43 33.7653 114.846 33.824C115.267 33.8827 115.774 33.8667 116.366 33.776V35ZM110.582 27.536V26.36H116.366V27.536H110.582ZM118.28 35V26.36H119.704V35H118.28ZM122.744 33.8V32.232H124.312V33.8H122.744ZM122.752 29.128V27.56H124.32V29.128H122.752Z" fill="white"/>
</svg>
